<svg width="25" height="25" viewBox="0 0 25 25" fill="none" xmlns="http://www.w3.org/2000/svg">
<path d="M20.0231 21.7249C17.8731 21.7249 15.7775 21.2455 13.7361 20.2869C11.6948 19.3282 9.88645 18.0615 8.31112 16.4869C6.73579 14.9122 5.46912 13.1039 4.51112 11.0619C3.55312 9.01985 3.07379 6.92419 3.07312 4.77485C3.07312 4.47485 3.17312 4.22485 3.37312 4.02485C3.57312 3.82485 3.82312 3.72485 4.12312 3.72485H8.17312C8.40645 3.72485 8.61479 3.79985 8.79812 3.94985C8.98145 4.09985 9.08979 4.29152 9.12312 4.52485L9.77312 8.02485C9.80645 8.25819 9.80212 8.47085 9.76012 8.66285C9.71812 8.85485 9.62245 9.02552 9.47312 9.17485L7.07312 11.6249C7.77312 12.8249 8.64812 13.9499 9.69812 14.9999C10.7481 16.0499 11.9065 16.9582 13.1731 17.7249L15.5231 15.3749C15.6731 15.2249 15.8691 15.1125 16.1111 15.0379C16.3531 14.9632 16.5905 14.9422 16.8231 14.9749L20.2731 15.6749C20.5065 15.7249 20.6981 15.8375 20.8481 16.0129C20.9981 16.1882 21.0731 16.3922 21.0731 16.6249V20.6749C21.0731 20.9749 20.9731 21.2249 20.7731 21.4249C20.5731 21.6249 20.3231 21.7249 20.0231 21.7249Z" fill="white"/>
</svg>
