<svg width="31" height="31" viewBox="0 0 31 31" fill="none" xmlns="http://www.w3.org/2000/svg">
<path d="M15.0731 25.1306C17.7253 25.1306 20.2688 24.077 22.1442 22.2017C24.0196 20.3263 25.0731 17.7828 25.0731 15.1306C25.0731 12.4784 24.0196 9.93491 22.1442 8.05955C20.2688 6.18418 17.7253 5.13061 15.0731 5.13061C12.421 5.13061 9.87742 6.18418 8.00205 8.05955C6.12669 9.93491 5.07312 12.4784 5.07312 15.1306C5.07312 17.7828 6.12669 20.3263 8.00205 22.2017C9.87742 24.077 12.421 25.1306 15.0731 25.1306ZM15.0731 2.63062C16.7146 2.63062 18.3401 2.95394 19.8567 3.58212C21.3732 4.2103 22.7512 5.13105 23.912 6.29178C25.0727 7.45251 25.9934 8.8305 26.6216 10.3471C27.2498 11.8636 27.5731 13.4891 27.5731 15.1306C27.5731 18.4458 26.2562 21.6252 23.912 23.9694C21.5677 26.3137 18.3883 27.6306 15.0731 27.6306C8.16062 27.6306 2.57312 22.0056 2.57312 15.1306C2.57312 11.8154 3.89008 8.63598 6.23429 6.29178C8.57849 3.94758 11.7579 2.63062 15.0731 2.63062ZM15.6981 8.88061V15.4431L21.3231 18.7806L20.3856 20.3181L13.8231 16.3806V8.88061H15.6981Z" fill="white"/>
</svg>
