<svg width="37" height="37" viewBox="0 0 37 37" fill="none" xmlns="http://www.w3.org/2000/svg">
<path fill-rule="evenodd" clip-rule="evenodd" d="M10.8144 0.147255C12.7682 0.0577019 13.391 0.0373535 18.366 0.0373535C23.3421 0.0373535 23.9639 0.0587177 25.9166 0.147255C27.8674 0.235792 29.1995 0.546163 30.3646 0.99899C31.5867 1.45909 32.6937 2.18 33.6087 3.11154C34.5404 4.02644 35.2614 5.13355 35.7213 6.35567C36.1741 7.52082 36.4834 8.85288 36.573 10.8026C36.6626 12.7564 36.6829 13.3792 36.6829 18.3542C36.6829 23.3293 36.6616 23.9521 36.573 25.906C36.4844 27.8556 36.1741 29.1877 35.7213 30.3528C35.2532 31.5567 34.6263 32.5793 33.6087 33.5969C32.6938 34.5286 31.5867 35.2496 30.3646 35.7095C29.1995 36.1623 27.8674 36.4717 25.9178 36.5612C23.9639 36.6508 23.3411 36.6711 18.366 36.6711C13.391 36.6711 12.7682 36.6498 10.8144 36.5612C8.86467 36.4727 7.53262 36.1623 6.36746 35.7095C5.16363 35.2414 4.14094 34.6145 3.12334 33.5969C2.19163 32.6821 1.47067 31.5749 1.01079 30.3528C0.557959 29.1877 0.248603 27.8556 0.15905 25.906C0.0694969 23.9521 0.0491486 23.3303 0.0491486 18.3542C0.0491486 13.3782 0.0705127 12.7564 0.15905 10.8036C0.247587 8.85287 0.557959 7.52082 1.01079 6.35567C1.47089 5.13363 2.19179 4.02657 3.12334 3.11154C4.03822 2.17983 5.14533 1.45888 6.36746 0.99899C7.53262 0.546163 8.86467 0.236808 10.8144 0.147255ZM25.7681 3.4443C23.8366 3.35677 23.2567 3.33744 18.366 3.33744C13.4754 3.33744 12.8954 3.35677 10.964 3.4443C9.17809 3.52571 8.20831 3.82386 7.56314 4.07521C6.70836 4.40695 6.09779 4.80381 5.4567 5.4449C4.81664 6.08599 4.41874 6.69656 4.08701 7.55134C3.83565 8.19651 3.5375 9.16629 3.45609 10.9522C3.36857 12.8836 3.34924 13.4636 3.34924 18.3542C3.34924 23.2449 3.36857 23.8248 3.45609 25.7563C3.5375 27.5422 3.83565 28.512 4.08701 29.1572C4.38044 29.9528 4.84849 30.6725 5.4567 31.2637C6.04766 31.8718 6.76747 32.3399 7.56314 32.6333C8.20831 32.8847 9.17809 33.1828 10.964 33.2642C12.8954 33.3518 13.4744 33.3711 18.366 33.3711C23.2577 33.3711 23.8366 33.3518 25.7681 33.2642C27.554 33.1828 28.5238 32.8847 29.169 32.6333C30.0237 32.3016 30.6344 31.9048 31.2755 31.2637C31.8836 30.6727 32.3517 29.9528 32.6451 29.1572C32.8965 28.512 33.1946 27.5422 33.276 25.7563C33.3636 23.8248 33.3829 23.2449 33.3829 18.3542C33.3829 13.4636 33.3636 12.8836 33.276 10.9522C33.1946 9.16629 32.8965 8.19651 32.6451 7.55134C32.3134 6.69656 31.9165 6.08599 31.2755 5.4449C30.6344 4.80484 30.0237 4.40695 29.169 4.07521C28.5238 3.82386 27.554 3.52571 25.7681 3.4443ZM16.0273 24.0007C16.7688 24.3079 17.5634 24.4659 18.366 24.4659C19.9871 24.4659 21.5415 23.822 22.6877 22.6759C23.834 21.5297 24.4779 19.9751 24.4779 18.3542C24.4779 16.7334 23.834 15.1788 22.6877 14.0326C21.5415 12.8864 19.9871 12.2425 18.366 12.2425C17.5634 12.2425 16.7688 12.4006 16.0273 12.7077C15.2856 13.0149 14.612 13.4651 14.0444 14.0326C13.4769 14.6001 13.0267 15.2738 12.7196 16.0153C12.4124 16.7568 12.2544 17.5516 12.2544 18.3542C12.2544 19.1569 12.4124 19.9516 12.7196 20.6931C13.0267 21.4347 13.4769 22.1084 14.0444 22.6759C14.612 23.2434 15.2856 23.6936 16.0273 24.0007ZM11.7088 11.6969C13.4744 9.93127 15.8691 8.93935 18.366 8.93935C20.8631 8.93935 23.2578 9.93127 25.0234 11.6969C26.789 13.4625 27.7809 15.8573 27.7809 18.3542C27.7809 20.8512 26.789 23.2459 25.0234 25.0116C23.2578 26.7772 20.8631 27.7691 18.366 27.7691C15.8691 27.7691 13.4744 26.7772 11.7088 25.0116C9.94314 23.2459 8.95121 20.8512 8.95121 18.3542C8.95121 15.8573 9.94314 13.4625 11.7088 11.6969ZM29.8686 10.3421C30.2858 9.9247 30.5203 9.35864 30.5203 8.7684C30.5203 8.17815 30.2858 7.61209 29.8686 7.19473C29.4511 6.77737 28.8851 6.5429 28.2948 6.5429C27.7047 6.5429 27.1385 6.77737 26.7212 7.19473C26.3038 7.61209 26.0693 8.17815 26.0693 8.7684C26.0693 9.35864 26.3038 9.9247 26.7212 10.3421C27.1385 10.7594 27.7047 10.9939 28.2948 10.9939C28.8851 10.9939 29.4511 10.7594 29.8686 10.3421Z" fill="white"/>
</svg>
