<svg width="38" height="37" viewBox="0 0 38 37" fill="none" xmlns="http://www.w3.org/2000/svg">
<path fill-rule="evenodd" clip-rule="evenodd" d="M0.739258 3.0978C0.739258 2.28612 1.0617 1.50768 1.63564 0.93374C2.20959 0.359795 2.98803 0.0373535 3.7997 0.0373535H34.3125C34.7145 0.0373535 35.1125 0.116519 35.4837 0.270322C35.855 0.424124 36.1924 0.649549 36.4766 0.93374C36.7607 1.21793 36.9862 1.55531 37.1401 1.92661C37.2938 2.29793 37.373 2.69589 37.373 3.0978V33.6106C37.373 34.0126 37.2938 34.4106 37.1401 34.7818C36.9862 35.1531 36.7607 35.4905 36.4766 35.7747C36.1924 36.0588 35.855 36.2843 35.4837 36.4382C35.1125 36.5919 34.7145 36.6711 34.3125 36.6711H3.7997C2.98803 36.6711 2.20959 36.3486 1.63564 35.7747C1.0617 35.2007 0.739258 34.4224 0.739258 33.6106V3.0978ZM15.2401 14.004H20.201V16.4967C20.9161 15.0632 22.7485 13.775 25.5013 13.775C30.7782 13.775 32.0306 16.6279 32.0306 21.8626V31.5577H26.6881V23.0547C26.6881 20.0738 25.9731 18.3924 24.1543 18.3924C21.632 18.3924 20.5825 20.205 20.5825 23.0547V31.5577H15.2401V14.004ZM6.08167 31.3287H11.4241V13.775H6.08167V31.3287ZM12.1873 8.05098C12.1873 8.50199 12.0985 8.9486 11.9259 9.36527C11.7533 9.78195 11.5003 10.1606 11.1814 10.4795C10.8625 10.7984 10.4839 11.0514 10.0672 11.224C9.6505 11.3966 9.2039 11.4854 8.75288 11.4854C8.30188 11.4854 7.85528 11.3966 7.4386 11.224C7.0219 11.0514 6.64331 10.7984 6.32438 10.4795C6.00547 10.1606 5.7525 9.78195 5.5799 9.36527C5.40731 8.9486 5.31847 8.50199 5.31847 8.05098C5.31847 7.14012 5.68032 6.26656 6.32438 5.62248C6.96847 4.97841 7.84202 4.61657 8.75288 4.61657C9.66375 4.61657 10.5373 4.97841 11.1814 5.62248C11.8255 6.26656 12.1873 7.14012 12.1873 8.05098Z" fill="white"/>
</svg>
