<svg width="31" height="32" viewBox="0 0 31 32" fill="none" xmlns="http://www.w3.org/2000/svg">
<path d="M15.0731 15.5363C15.7606 15.5363 16.3494 15.2831 16.8394 14.7768C17.3285 14.2713 17.5731 13.6634 17.5731 12.953C17.5731 12.2425 17.3285 11.6342 16.8394 11.1278C16.3494 10.6224 15.7606 10.3696 15.0731 10.3696C14.3856 10.3696 13.7973 10.6224 13.3081 11.1278C12.8181 11.6342 12.5731 12.2425 12.5731 12.953C12.5731 13.6634 12.8181 14.2713 13.3081 14.7768C13.7973 15.2831 14.3856 15.5363 15.0731 15.5363ZM15.0731 27.9686C14.9065 27.9686 14.7398 27.9363 14.5731 27.8717C14.4065 27.8071 14.2606 27.721 14.1356 27.6134C11.094 24.8363 8.82312 22.2586 7.32312 19.8802C5.82312 17.5009 5.07312 15.278 5.07312 13.2113C5.07312 9.98213 6.07854 7.40956 8.08937 5.49359C10.0994 3.57761 12.4273 2.61963 15.0731 2.61963C17.719 2.61963 20.0469 3.57761 22.0569 5.49359C24.0677 7.40956 25.0731 9.98213 25.0731 13.2113C25.0731 15.278 24.3231 17.5009 22.8231 19.8802C21.3231 22.2586 19.0523 24.8363 16.0106 27.6134C15.8856 27.721 15.7398 27.8071 15.5731 27.8717C15.4065 27.9363 15.2398 27.9686 15.0731 27.9686Z" fill="white"/>
</svg>
