<svg width="333" height="208" viewBox="0 0 333 208" fill="none" xmlns="http://www.w3.org/2000/svg">
<g filter="url(#filter0_d_86_558)">
<path d="M30.1494 196.647V187.342H31.9938L34.1736 193.965C34.3412 194.552 34.5089 195.055 34.5928 195.306C34.6766 194.971 34.8443 194.468 35.0958 193.797L37.3594 187.342H39.0361V196.647H37.8624V188.851L35.1796 196.647H34.0897L31.407 188.683V196.647H30.1494Z" fill="white"/>
<path d="M41.6352 192.12C41.6352 190.611 42.0544 189.353 42.8928 188.515C43.7311 187.677 44.821 187.174 46.0786 187.174C46.9169 187.174 47.6715 187.341 48.426 187.76C49.0967 188.18 49.5997 188.766 50.0189 189.437C50.3542 190.192 50.5219 191.03 50.5219 191.952C50.5219 192.874 50.3542 193.713 49.935 194.467C49.5159 195.222 49.0128 195.809 48.3421 196.144C47.6714 196.563 46.9169 196.731 46.0786 196.731C45.2402 196.731 44.4018 196.479 43.7311 196.06C43.0604 195.641 42.5574 195.054 42.1382 194.3C41.8029 193.713 41.6352 192.958 41.6352 192.12ZM42.8928 192.12C42.8928 193.21 43.2281 194.132 43.815 194.803C44.4018 195.473 45.1564 195.809 46.0786 195.809C47.0008 195.809 47.7553 195.473 48.3421 194.803C48.929 194.132 49.2643 193.21 49.2643 192.036C49.2643 191.282 49.0967 190.611 48.8452 190.024C48.5937 189.437 48.2583 189.018 47.7553 188.683C47.2523 188.347 46.7492 188.18 46.0786 188.18C45.2402 188.18 44.4857 188.515 43.815 189.102C43.1443 189.689 42.8928 190.695 42.8928 192.12Z" fill="white"/>
<path d="M56.3068 196.815L52.7018 187.342H54.0432L56.4745 194.216C56.6421 194.803 56.8098 195.306 56.9775 195.725C57.1451 195.222 57.3128 194.719 57.4805 194.216L59.9956 187.342H61.2531L57.6482 196.815H56.3068Z" fill="white"/>
<path d="M63.6006 196.815V187.342H64.7743V196.815H63.6006Z" fill="white"/>
<path d="M68.3786 196.815V187.342H69.6362L74.4987 194.719V187.342H75.6724V196.815H74.4148L69.5523 189.354V196.815H68.3786Z" fill="white"/>
<path d="M83.3017 192.959V191.869H87.242V195.306C86.6552 195.809 85.9845 196.144 85.3976 196.396C84.7269 196.647 84.0562 196.731 83.3855 196.731C82.4633 196.731 81.625 196.564 80.8704 196.144C80.1159 195.725 79.529 195.222 79.1937 194.468C78.8583 193.713 78.6068 192.875 78.6068 191.953C78.6068 191.03 78.7745 190.192 79.1937 189.438C79.6129 188.683 80.1159 188.096 80.7866 187.677C81.4573 187.258 82.2957 187.09 83.2179 187.09C83.8886 187.09 84.4754 187.174 85.0623 187.425C85.5653 187.677 86.0683 187.928 86.3198 188.348C86.6552 188.767 86.8228 189.27 86.9905 189.857L85.9006 190.192C85.733 189.689 85.5653 189.354 85.3976 189.102C85.2299 188.851 84.8946 188.599 84.4754 188.431C84.0562 188.264 83.637 188.18 83.2179 188.18C82.631 188.18 82.2118 188.264 81.7926 188.431C81.3735 188.599 81.0381 188.851 80.7866 189.102C80.5351 189.354 80.3674 189.689 80.1997 190.024C79.9482 190.611 79.8644 191.198 79.8644 191.869C79.8644 192.707 80.0321 193.378 80.2836 193.965C80.5351 194.552 80.9543 194.971 81.5411 195.222C82.0441 195.474 82.631 195.641 83.3017 195.641C83.8047 195.641 84.3916 195.558 84.8946 195.306C85.3976 195.138 85.8168 194.887 86.0683 194.635V192.875H83.3017V192.959Z" fill="white"/>
<path d="M95.0396 196.815V187.342H101.411V188.432H96.2971V191.366H100.74V192.456H96.2971V196.731H95.0396V196.815Z" fill="white"/>
<path d="M103.842 192.12C103.842 190.611 104.262 189.354 105.1 188.515C105.938 187.677 107.028 187.174 108.453 187.174C109.376 187.174 110.13 187.342 110.885 187.761C111.639 188.18 112.142 188.767 112.478 189.438C112.813 190.192 113.064 191.031 113.064 191.953C113.064 192.875 112.897 193.713 112.478 194.468C112.058 195.222 111.555 195.809 110.801 196.145C110.046 196.564 109.292 196.731 108.453 196.731C107.531 196.731 106.777 196.48 106.022 196.061C105.268 195.642 104.765 195.055 104.429 194.3C104.01 193.713 103.842 192.959 103.842 192.12ZM105.1 192.12C105.1 193.21 105.435 194.133 106.022 194.803C106.609 195.474 107.447 195.809 108.37 195.809C109.292 195.809 110.13 195.474 110.717 194.803C111.304 194.133 111.639 193.21 111.639 192.037C111.639 191.282 111.472 190.611 111.22 190.025C110.969 189.438 110.549 189.018 110.046 188.683C109.543 188.348 108.956 188.18 108.286 188.18C107.364 188.18 106.609 188.515 105.938 189.102C105.435 189.773 105.1 190.695 105.1 192.12Z" fill="white"/>
<path d="M115.831 196.815V187.342H119.939C120.777 187.342 121.364 187.426 121.783 187.593C122.202 187.761 122.538 188.096 122.789 188.516C123.041 188.935 123.209 189.438 123.209 189.941C123.209 190.611 122.957 191.198 122.538 191.617C122.119 192.037 121.448 192.372 120.61 192.456C120.945 192.624 121.196 192.791 121.364 192.959C121.699 193.294 122.035 193.713 122.37 194.216L123.963 196.815H122.454L121.196 194.887C120.861 194.3 120.526 193.881 120.274 193.546C120.023 193.21 119.855 193.043 119.687 192.875C119.52 192.791 119.352 192.707 119.101 192.623C118.933 192.623 118.765 192.54 118.43 192.54H117.005V196.731H115.831V196.815ZM117.088 191.534H119.687C120.274 191.534 120.693 191.45 121.029 191.366C121.364 191.282 121.616 191.031 121.783 190.779C121.951 190.528 122.035 190.276 122.035 189.941C122.035 189.522 121.867 189.102 121.532 188.851C121.196 188.599 120.693 188.432 120.023 188.432H117.088V191.534Z" fill="white"/>
<path d="M127.736 196.648L125.221 187.342H126.478L127.904 193.462C128.071 194.133 128.155 194.719 128.323 195.39C128.574 194.384 128.742 193.797 128.742 193.63L130.502 187.342H132.012L133.353 192.037C133.688 193.21 133.94 194.3 134.107 195.306C134.191 194.719 134.359 194.049 134.61 193.294L136.036 187.342H137.293L134.778 196.648H133.521L131.592 189.522C131.425 188.935 131.341 188.599 131.341 188.432C131.257 188.851 131.173 189.186 131.089 189.522L129.077 196.648H127.736Z" fill="white"/>
<path d="M138.215 196.648L141.82 187.342H143.162L147.018 196.648H145.593L144.503 193.797H140.563L139.557 196.648H138.215ZM140.898 192.875H144.084L143.078 190.276C142.743 189.522 142.575 188.851 142.407 188.348C142.323 188.935 142.156 189.522 141.904 190.108L140.898 192.875Z" fill="white"/>
<path d="M149.282 196.648V187.342H153.306C154.145 187.342 154.731 187.426 155.151 187.593C155.57 187.761 155.905 188.096 156.157 188.516C156.408 188.935 156.492 189.438 156.492 189.941C156.492 190.611 156.324 191.198 155.905 191.617C155.486 192.037 154.815 192.372 153.977 192.456C154.312 192.624 154.564 192.791 154.731 192.959C155.067 193.294 155.402 193.713 155.737 194.216L157.33 196.731H155.821L154.648 194.803C154.312 194.216 153.977 193.797 153.809 193.546C153.558 193.21 153.39 193.043 153.222 192.959C153.055 192.875 152.887 192.791 152.719 192.707C152.552 192.707 152.384 192.623 152.049 192.623H150.707V196.731H149.282V196.648ZM150.456 191.45H152.971C153.474 191.45 153.977 191.366 154.228 191.282C154.564 191.198 154.731 190.947 154.899 190.695C155.067 190.444 155.151 190.192 155.151 189.857C155.151 189.438 154.983 189.019 154.648 188.767C154.312 188.515 153.893 188.348 153.222 188.348H150.372V191.45H150.456Z" fill="white"/>
<path d="M159.594 196.648V187.342H162.78C163.534 187.342 164.037 187.426 164.456 187.509C164.959 187.593 165.462 187.845 165.798 188.18C166.301 188.599 166.636 189.102 166.888 189.773C167.139 190.444 167.223 191.198 167.223 191.953C167.223 192.624 167.139 193.294 166.971 193.797C166.804 194.384 166.552 194.803 166.301 195.139C166.049 195.474 165.798 195.809 165.462 195.977C165.127 196.145 164.792 196.312 164.372 196.48C163.953 196.564 163.45 196.648 162.863 196.648H159.594ZM160.851 195.558H162.863C163.45 195.558 163.953 195.474 164.289 195.39C164.624 195.306 164.876 195.139 165.127 194.887C165.379 194.636 165.63 194.216 165.798 193.713C165.965 193.21 166.049 192.624 166.049 191.953C166.049 190.947 165.882 190.192 165.546 189.689C165.211 189.186 164.876 188.851 164.372 188.599C164.037 188.432 163.534 188.432 162.78 188.432H160.851V195.558Z" fill="white"/>
<path d="M174.6 193.546L175.774 193.462C175.857 193.881 175.941 194.3 176.193 194.552C176.36 194.887 176.696 195.055 177.115 195.222C177.534 195.39 178.037 195.474 178.54 195.474C179.043 195.474 179.379 195.39 179.798 195.306C180.133 195.139 180.385 194.971 180.552 194.719C180.72 194.468 180.804 194.216 180.804 193.965C180.804 193.713 180.72 193.462 180.552 193.21C180.385 192.959 180.133 192.791 179.714 192.707C179.462 192.623 178.959 192.456 178.121 192.288C177.283 192.12 176.696 191.869 176.36 191.701C175.941 191.45 175.606 191.198 175.354 190.863C175.103 190.528 175.019 190.108 175.019 189.689C175.019 189.186 175.187 188.767 175.438 188.432C175.69 188.012 176.109 187.761 176.612 187.509C177.115 187.258 177.702 187.174 178.289 187.174C178.959 187.174 179.546 187.258 180.049 187.509C180.552 187.761 180.971 188.012 181.223 188.515C181.474 188.935 181.642 189.438 181.642 189.941L180.468 190.025C180.385 189.438 180.217 189.018 179.798 188.683C179.462 188.348 178.875 188.264 178.205 188.264C177.45 188.264 176.947 188.432 176.612 188.683C176.277 188.935 176.109 189.27 176.109 189.689C176.109 190.025 176.193 190.276 176.444 190.528C176.696 190.779 177.283 190.947 178.289 191.198C179.295 191.45 179.965 191.617 180.301 191.785C180.804 192.037 181.223 192.372 181.474 192.707C181.726 193.043 181.894 193.546 181.894 194.049C181.894 194.552 181.726 194.971 181.474 195.39C181.223 195.809 180.804 196.145 180.301 196.396C179.798 196.648 179.211 196.731 178.54 196.731C177.702 196.731 177.031 196.648 176.444 196.396C175.857 196.145 175.438 195.809 175.103 195.306C174.768 194.719 174.6 194.133 174.6 193.546Z" fill="white"/>
<path d="M187.511 196.648V188.432H184.409V187.342H191.787V188.432H188.685V196.648H187.511Z" fill="white"/>
<path d="M194.302 196.648V187.342H198.41C199.248 187.342 199.835 187.426 200.338 187.594C200.757 187.761 201.092 188.097 201.344 188.516C201.595 188.935 201.763 189.438 201.763 189.941C201.763 190.612 201.512 191.199 201.092 191.618C200.673 192.037 200.003 192.372 199.08 192.456C199.416 192.624 199.667 192.791 199.835 192.959C200.17 193.294 200.506 193.714 200.841 194.217L202.434 196.732H200.841L199.583 194.803C199.248 194.217 198.913 193.797 198.661 193.546C198.41 193.211 198.242 193.043 198.074 192.959C197.907 192.875 197.739 192.791 197.487 192.708C197.32 192.708 197.152 192.624 196.817 192.624H195.392V196.732H194.302V196.648ZM195.475 191.45H198.158C198.745 191.45 199.164 191.366 199.5 191.282C199.835 191.199 200.086 190.947 200.254 190.696C200.422 190.444 200.506 190.192 200.506 189.857C200.506 189.438 200.338 189.019 200.003 188.767C199.667 188.516 199.164 188.348 198.494 188.348H195.559V191.45H195.475Z" fill="white"/>
<path d="M203.943 196.648L207.548 187.342H208.889L212.746 196.648H211.321L210.231 193.797H206.29L205.284 196.648H203.943ZM206.626 192.791H209.811L208.805 190.192C208.47 189.438 208.302 188.767 208.135 188.264C208.051 188.851 207.883 189.438 207.632 190.025L206.626 192.791Z" fill="white"/>
<path d="M216.099 196.648V188.432H212.997V187.342H220.375V188.432H217.357V196.648H216.099Z" fill="white"/>
<path d="M223.225 196.648V187.342H229.932V188.432H224.399V191.282H229.597V192.372H224.399V195.558H230.1V196.648H223.225Z" fill="white"/>
<path d="M237.394 192.791V191.785H241.418V195.055C240.831 195.474 240.16 195.893 239.489 196.061C238.819 196.313 238.148 196.396 237.477 196.396C236.555 196.396 235.717 196.229 234.962 195.81C234.208 195.474 233.621 194.887 233.286 194.217C232.866 193.546 232.699 192.708 232.699 191.869C232.699 191.031 232.866 190.192 233.286 189.438C233.705 188.683 234.208 188.097 234.962 187.761C235.717 187.426 236.471 187.174 237.477 187.174C238.148 187.174 238.735 187.258 239.322 187.51C239.909 187.677 240.328 188.013 240.579 188.348C240.915 188.683 241.166 189.186 241.25 189.773L240.16 190.025C239.993 189.606 239.825 189.186 239.657 188.935C239.406 188.683 239.154 188.432 238.735 188.348C238.316 188.18 237.897 188.097 237.477 188.097C236.891 188.097 236.388 188.18 235.968 188.348C235.549 188.516 235.214 188.767 234.962 189.019C234.711 189.27 234.543 189.606 234.375 189.857C234.124 190.444 234.04 191.031 234.04 191.618C234.04 192.372 234.208 193.043 234.459 193.63C234.711 194.133 235.13 194.552 235.717 194.803C236.304 195.055 236.891 195.223 237.477 195.223C237.98 195.223 238.567 195.139 239.07 194.887C239.573 194.72 239.992 194.468 240.244 194.3V192.624H237.394V192.791Z" fill="white"/>
<path d="M244.436 196.648V187.342H245.61V196.648H244.436Z" fill="white"/>
<path d="M255.754 193.379L257.011 193.714C256.76 194.636 256.257 195.391 255.586 195.894C254.916 196.397 254.077 196.648 253.155 196.648C252.149 196.648 251.311 196.481 250.724 196.061C250.137 195.642 249.634 195.139 249.299 194.385C248.963 193.63 248.796 192.876 248.796 192.037C248.796 191.115 248.963 190.277 249.382 189.606C249.718 188.935 250.305 188.432 250.975 188.013C251.646 187.678 252.4 187.51 253.239 187.51C254.161 187.51 254.916 187.762 255.586 188.181C256.257 188.6 256.676 189.271 256.928 190.109L255.754 190.36C255.502 189.69 255.251 189.271 254.832 188.935C254.413 188.684 253.91 188.516 253.323 188.516C252.652 188.516 251.981 188.684 251.562 189.019C251.059 189.354 250.724 189.774 250.556 190.36C250.388 190.947 250.305 191.45 250.305 192.037C250.305 192.792 250.388 193.462 250.64 193.965C250.891 194.552 251.227 194.971 251.73 195.223C252.233 195.475 252.736 195.642 253.323 195.642C253.993 195.642 254.58 195.474 255.083 195.055C255.251 194.72 255.586 194.133 255.754 193.379Z" fill="white"/>
<path d="M259.024 196.648L262.377 187.342H263.635L267.24 196.648H265.982L264.976 193.797H261.287L260.281 196.648H259.024ZM261.539 192.791H264.557L263.635 190.192C263.383 189.438 263.132 188.767 263.048 188.264C262.964 188.851 262.796 189.438 262.545 190.025L261.539 192.791Z" fill="white"/>
<path d="M269.755 196.648V187.342H271.012V195.558H275.791V196.648H269.755Z" fill="white"/>
<path d="M278.222 196.648V187.342H279.396V195.558H283.755V196.648H278.222Z" fill="white"/>
<path d="M288.283 196.648V192.708L284.845 187.342H286.271L288.031 190.192C288.366 190.696 288.618 191.282 288.953 191.785C289.205 191.282 289.54 190.779 289.875 190.109L291.552 187.342H292.894L289.456 192.708V196.648H288.283Z" fill="white"/>
<path d="M296.079 194.468L295.744 189.438V187.342H297.169V189.438L296.834 194.468H296.079ZM295.828 196.816V195.474H297.085V196.816H295.828Z" fill="white"/>
<path d="M81.0384 126.393V5.4165L141.652 66.5334L166.971 41.0471H193.966L141.652 93.7803L101.83 53.7903V126.393H81.0384Z" fill="url(#paint0_linear_86_558)"/>
<path d="M102.752 5.91968H201.679C212.242 5.91968 222.638 9.27314 230.938 15.7286C238.567 21.681 244.771 30.4 245.106 44.9876C245.106 45.6583 245.106 46.2451 245.106 46.9158C245.19 50.94 244.687 73.8274 220.961 83.7201L245.106 126.309H222.135L187.678 66.1144H206.793C207.883 66.1982 215.428 66.2821 221.129 60.2458C226.83 54.1258 226.243 46.6643 226.075 45.4906C225.908 43.5623 225.237 37.7776 221.548 33.0828C221.297 32.8313 221.129 32.5797 220.878 32.3282C217.189 28.0526 211.739 25.7051 206.122 25.7051H122.956L102.752 5.91968Z" fill="url(#paint1_linear_86_558)"/>
<path d="M18.2444 178.957C16.0647 178.957 13.9688 178.622 11.8729 178.035C9.77694 177.448 7.68103 176.442 5.66895 175.184V168.31H8.26788L8.68706 173.843C10.1961 174.765 11.789 175.436 13.3819 175.855C14.9748 176.274 16.6515 176.526 18.3283 176.526C20.2565 176.526 22.0171 176.274 23.4423 175.687C24.8675 175.101 26.0413 174.346 26.8796 173.256C27.718 172.166 28.1372 170.993 28.1372 169.651C28.1372 168.31 27.8018 167.22 27.1311 166.214C26.4604 165.208 25.3706 164.369 23.9453 163.615C22.4363 162.86 20.4242 162.19 17.9091 161.603C15.2263 160.932 12.9627 160.178 11.286 159.255C9.52543 158.333 8.26788 157.243 7.51335 155.986C6.67498 154.728 6.2558 153.219 6.2558 151.459C6.2558 149.698 6.75882 148.105 7.76486 146.764C8.7709 145.422 10.1123 144.333 11.9567 143.578C13.7173 142.823 15.8132 142.404 18.2444 142.404C20.7595 142.404 23.0231 142.74 24.9514 143.494C26.9635 144.249 28.6402 145.087 29.9816 146.261V152.632H27.4665L27.0473 147.602C25.9574 146.764 24.6999 146.093 23.1908 145.674C21.6817 145.171 20.0889 145.003 18.1606 145.003C16.3162 145.003 14.7233 145.255 13.4658 145.842C12.1244 146.428 11.1183 147.183 10.4476 148.189C9.77694 149.195 9.35776 150.285 9.35776 151.542C9.35776 152.716 9.60927 153.806 10.1961 154.644C10.783 155.567 11.7052 156.321 13.1304 157.076C14.5556 157.746 16.4839 158.417 18.999 159.088C23.0231 160.094 26.1251 161.435 28.221 163.112C30.3169 164.789 31.323 166.968 31.323 169.735C31.323 171.663 30.8199 173.256 29.7301 174.681C28.6402 176.107 27.1311 177.197 25.2029 177.951C23.0231 178.538 20.7595 178.957 18.2444 178.957Z" fill="white"/>
<path d="M50.6889 178.957C48.1738 178.957 45.9941 178.454 44.0658 177.532C42.1376 176.61 40.6285 175.268 39.5386 173.424C38.4488 171.663 37.9457 169.484 37.9457 166.968V145.339L33.8377 145.003V142.823H44.988V145.003L40.88 145.339V166.968C40.88 168.981 41.2992 170.657 42.1376 172.082C42.9759 173.508 44.1497 174.598 45.5749 175.268C47.0839 176.023 48.7607 176.358 50.6889 176.358C52.6172 176.358 54.2939 176.023 55.8029 175.268C57.312 174.514 58.4857 173.424 59.3241 172.082C60.1625 170.657 60.5816 168.981 60.5816 166.968V145.339L56.4736 145.003V142.823H67.6239V145.003L63.5159 145.339V166.968C63.5159 169.567 63.0129 171.747 61.923 173.508C60.8332 175.268 59.3241 176.61 57.3958 177.532C55.4676 178.454 53.2878 178.957 50.6889 178.957Z" fill="white"/>
<path d="M103.841 178.454V176.358L107.866 176.022V145.422L103.841 145.087V142.907H107.866H118.932C121.447 142.907 123.543 143.326 125.304 144.165C127.064 145.003 128.405 146.26 129.328 147.769C130.25 149.279 130.669 151.123 130.669 153.219C130.669 155.315 130.25 157.159 129.328 158.668C128.405 160.261 127.064 161.435 125.304 162.273C123.543 163.112 121.447 163.531 118.932 163.531H110.8V175.855L114.824 176.19V178.286H103.841V178.454ZM110.716 161.183H118.848C121.782 161.183 123.962 160.429 125.471 158.92C126.98 157.411 127.651 155.566 127.651 153.303C127.651 151.039 126.896 149.111 125.471 147.602C124.046 146.093 121.782 145.338 118.848 145.338H110.716V161.183Z" fill="white"/>
<path d="M128.573 178.454V176.358L131.172 176.191L143.831 142.991H146.598L159.174 176.191L161.772 176.358V178.454H152.97V176.358L156.072 176.107L153.137 168.058H137.208L134.19 176.107L137.292 176.358V178.454H128.573ZM138.214 165.543H152.299L145.844 148.105L145.341 146.68H145.173L144.67 148.105L138.214 165.543Z" fill="white"/>
<path d="M178.876 178.957C176.78 178.957 174.6 178.622 172.504 178.035C170.408 177.448 168.312 176.442 166.384 175.184V168.31H168.899L169.318 173.843C170.827 174.765 172.336 175.436 174.013 175.855C175.606 176.274 177.283 176.526 178.876 176.526C180.804 176.526 182.564 176.274 183.99 175.687C185.415 175.101 186.589 174.346 187.343 173.256C188.182 172.25 188.517 170.993 188.517 169.651C188.517 168.31 188.182 167.22 187.511 166.214C186.84 165.208 185.834 164.369 184.325 163.615C182.816 162.86 180.888 162.19 178.373 161.603C175.69 160.932 173.426 160.178 171.75 159.255C170.073 158.333 168.815 157.243 167.977 155.986C167.139 154.728 166.803 153.219 166.803 151.459C166.803 149.698 167.306 148.105 168.312 146.764C169.318 145.422 170.66 144.333 172.42 143.578C174.181 142.823 176.277 142.404 178.624 142.404C181.139 142.404 183.319 142.74 185.331 143.494C187.343 144.249 188.936 145.087 190.277 146.261V152.632H187.762L187.343 147.602C186.253 146.764 184.996 146.093 183.571 145.674C182.145 145.171 180.469 145.003 178.624 145.003C176.78 145.003 175.271 145.255 173.929 145.842C172.588 146.428 171.582 147.183 170.911 148.189C170.24 149.195 169.821 150.285 169.821 151.542C169.821 152.716 170.073 153.806 170.66 154.644C171.247 155.567 172.169 156.321 173.594 157.076C174.935 157.746 176.864 158.417 179.379 159.088C183.403 160.094 186.421 161.435 188.517 163.112C190.613 164.789 191.619 166.968 191.619 169.735C191.619 171.663 191.116 173.256 190.026 174.681C188.936 176.107 187.427 177.197 185.499 177.951C183.571 178.538 181.391 178.957 178.876 178.957Z" fill="white"/>
<path d="M208.638 178.957C206.542 178.957 204.446 178.622 202.266 178.035C200.17 177.448 198.158 176.442 196.146 175.184V168.31H198.661L199.08 173.843C200.589 174.765 202.098 175.436 203.691 175.855C205.284 176.274 206.961 176.526 208.554 176.526C210.482 176.526 212.159 176.274 213.668 175.687C215.093 175.101 216.267 174.346 217.021 173.256C217.86 172.25 218.195 170.993 218.195 169.651C218.195 168.31 217.86 167.22 217.189 166.214C216.518 165.208 215.512 164.369 214.003 163.615C212.494 162.86 210.566 162.19 208.051 161.603C205.368 160.932 203.188 160.178 201.428 159.255C199.751 158.333 198.493 157.243 197.655 155.986C196.817 154.728 196.481 153.219 196.481 151.459C196.481 149.698 196.984 148.105 197.99 146.764C198.996 145.422 200.338 144.333 202.098 143.578C203.859 142.823 205.955 142.404 208.302 142.404C210.817 142.404 212.997 142.74 215.009 143.494C216.938 144.249 218.614 145.087 219.956 146.261V152.632H217.441L217.021 147.602C215.931 146.764 214.674 146.093 213.249 145.674C211.823 145.171 210.147 145.003 208.302 145.003C206.458 145.003 204.949 145.255 203.607 145.842C202.266 146.428 201.26 147.183 200.589 148.189C199.919 149.195 199.499 150.285 199.499 151.542C199.499 152.716 199.751 153.806 200.338 154.644C200.925 155.567 201.847 156.321 203.272 157.076C204.614 157.746 206.542 158.417 209.057 159.088C213.081 160.094 216.099 161.435 218.111 163.112C220.123 164.789 221.213 166.968 221.213 169.735C221.213 171.663 220.71 173.256 219.62 174.681C218.53 176.107 217.021 177.197 215.177 177.951C213.333 178.538 211.153 178.957 208.638 178.957Z" fill="white"/>
<path d="M237.142 178.454V176.358L241.166 176.022V145.422L237.142 145.087V142.907H241.166H244.1H248.124V145.087L244.1 145.422V176.106H259.023L259.275 170.405H261.706V178.538H237.142V178.454Z" fill="white"/>
<path d="M265.143 178.454V176.358L269.168 176.022V145.422L265.143 145.087V142.907H269.168H272.186H276.21V145.087L272.186 145.422V176.106H287.36L287.612 170.405H290.043V178.538H265.143V178.454Z" fill="white"/>
<path d="M310.248 178.454C306.643 178.454 303.625 177.699 301.11 176.19C298.678 174.681 296.75 172.585 295.493 169.902C294.235 167.22 293.564 164.118 293.564 160.68V160.261C293.564 156.74 294.235 153.722 295.493 151.039C296.834 148.356 298.678 146.26 301.11 144.751C303.541 143.242 306.308 142.488 309.577 142.488C312.092 142.488 314.272 142.823 316.033 143.494C317.793 144.165 319.47 145.087 320.895 146.26V153.051H318.38L318.129 147.434C317.374 146.931 316.619 146.428 315.781 146.093C314.943 145.757 314.104 145.422 313.098 145.254C312.092 145.087 310.919 144.919 309.661 144.919C306.978 144.919 304.715 145.59 302.786 146.847C300.858 148.105 299.349 149.949 298.259 152.213C297.169 154.476 296.666 157.159 296.666 160.177V160.68C296.666 163.782 297.169 166.465 298.259 168.813C299.349 171.16 300.858 172.837 302.954 174.094C304.966 175.352 307.397 175.939 310.248 175.939C311.757 175.939 313.266 175.771 314.691 175.352C316.116 175.016 317.29 174.513 318.296 173.843L318.548 168.561H321.063V175.519C319.554 176.442 317.877 177.112 316.033 177.615C314.272 178.202 312.26 178.454 310.248 178.454Z" fill="white"/>
<path d="M98.4763 175.604C97.5541 175.101 97.3026 174.178 97.2188 174.011V166.801C97.1349 166.214 96.8834 164.453 95.542 162.944C93.8653 161.1 91.7694 160.848 91.2664 160.765C91.8532 160.597 94.4521 159.842 96.1289 157.243C97.4703 155.064 97.3026 152.968 97.2188 152.213C97.2188 151.626 97.2188 148.273 94.536 145.59C91.9371 143.075 88.8351 142.991 88.1644 142.991H70.8102V145.339H74.9182V175.855H71.0617V178.035H81.5413V175.688H77.5171V161.938H88.6674C89.2543 162.022 90.7633 162.274 92.1886 163.531C93.6976 164.789 94.2006 166.382 94.2845 166.885V174.095C94.2845 174.346 94.536 176.442 96.2966 177.616C98.3925 179.041 100.74 178.119 100.908 178.035V175.771C100.824 175.855 99.65 176.358 98.4763 175.604ZM87.7452 159.675H77.7687V145.171H87.7452C88.2482 145.171 90.6795 145.339 92.6077 147.351C94.6198 149.447 94.6198 151.878 94.6198 152.381C94.7037 152.8 94.8713 155.231 93.1946 157.327C91.0987 159.759 88.0806 159.675 87.7452 159.675Z" fill="white"/>
</g>
<defs>
<filter id="filter0_d_86_558" x="0.668945" y="0.416504" width="331.394" height="207.399" filterUnits="userSpaceOnUse" color-interpolation-filters="sRGB">
<feFlood flood-opacity="0" result="BackgroundImageFix"/>
<feColorMatrix in="SourceAlpha" type="matrix" values="0 0 0 0 0 0 0 0 0 0 0 0 0 0 0 0 0 0 127 0" result="hardAlpha"/>
<feOffset dx="3" dy="3"/>
<feGaussianBlur stdDeviation="4"/>
<feComposite in2="hardAlpha" operator="out"/>
<feColorMatrix type="matrix" values="0 0 0 0 0 0 0 0 0 0 0 0 0 0 0 0 0 0 0.4 0"/>
<feBlend mode="normal" in2="BackgroundImageFix" result="effect1_dropShadow_86_558"/>
<feBlend mode="normal" in="SourceGraphic" in2="effect1_dropShadow_86_558" result="shape"/>
</filter>
<linearGradient id="paint0_linear_86_558" x1="137.491" y1="5.45297" x2="137.491" y2="126.355" gradientUnits="userSpaceOnUse">
<stop stop-color="#119AD0"/>
<stop offset="0.2041" stop-color="#1093CA"/>
<stop offset="0.4944" stop-color="#0E81B9"/>
<stop offset="0.835" stop-color="#0B629E"/>
<stop offset="0.8466" stop-color="#0B619D"/>
</linearGradient>
<linearGradient id="paint1_linear_86_558" x1="174.013" y1="5.91775" x2="174.013" y2="126.356" gradientUnits="userSpaceOnUse">
<stop stop-color="#76777C"/>
<stop offset="0.2204" stop-color="#6F7074"/>
<stop offset="0.5563" stop-color="#5A5C5F"/>
<stop offset="0.852" stop-color="#434647"/>
</linearGradient>
</defs>
</svg>
