<svg width="37" height="31" viewBox="0 0 37 31" fill="none" xmlns="http://www.w3.org/2000/svg">
<path d="M36.9928 3.99329C35.6457 4.59025 34.1984 4.9936 32.677 5.17591C34.2291 4.2466 35.4198 2.77195 35.9812 1.01657C34.5292 1.87813 32.9206 2.50413 31.2088 2.83971C29.8374 1.3812 27.8852 0.468018 25.7233 0.468018C21.5736 0.468018 18.2081 3.83357 18.2081 7.98645C18.2081 8.57373 18.2758 9.14487 18.4017 9.69665C12.153 9.38204 6.61742 6.38919 2.90983 1.84263C2.26447 2.95588 1.89339 4.2466 1.89339 5.62121C1.89339 8.22846 3.22122 10.5308 5.23635 11.878C4.00372 11.8376 2.8453 11.5004 1.83208 10.9374V11.0342C1.83208 14.6756 4.42159 17.7136 7.86135 18.4041C7.2289 18.5752 6.56579 18.6655 5.88171 18.6655C5.39769 18.6655 4.92497 18.6203 4.46676 18.5332C5.42351 21.518 8.19855 23.6929 11.4883 23.7509C8.9149 25.7677 5.67358 26.9697 2.15315 26.9697C1.54651 26.9697 0.947942 26.9342 0.359055 26.8648C3.68588 28.9993 7.63547 30.2416 11.8787 30.2416C25.7055 30.2416 33.2643 18.7897 33.2643 8.85769C33.2643 8.53501 33.2562 8.2091 33.2417 7.88642C34.7099 6.8248 35.9845 5.50343 36.9896 3.99813L36.9928 3.99329Z" fill="white"/>
</svg>
