<svg width="252" height="160" viewBox="0 0 252 160" fill="none" xmlns="http://www.w3.org/2000/svg">
<g filter="url(#filter0_d_73_2149)">
<path d="M23.5634 148.384V141.449H24.938L26.5626 146.385C26.6876 146.822 26.8125 147.197 26.875 147.385C26.9375 147.135 27.0625 146.76 27.2499 146.26L28.937 141.449H30.1866V148.384H29.3119V142.573L27.3124 148.384H26.5001L24.5006 142.448V148.384H23.5634Z" fill="white"/>
<path d="M32.1237 145.01C32.1237 143.886 32.4361 142.948 33.061 142.323C33.6858 141.699 34.4981 141.324 35.4353 141.324C36.0602 141.324 36.6225 141.449 37.1849 141.761C37.6847 142.074 38.0596 142.511 38.3721 143.011C38.622 143.573 38.747 144.198 38.747 144.885C38.747 145.573 38.622 146.197 38.3096 146.76C37.9972 147.322 37.6223 147.76 37.1224 148.009C36.6225 148.322 36.0602 148.447 35.4353 148.447C34.8105 148.447 34.1857 148.259 33.6858 147.947C33.1859 147.635 32.811 147.197 32.4986 146.635C32.2487 146.197 32.1237 145.635 32.1237 145.01ZM33.061 145.01C33.061 145.823 33.3109 146.51 33.7483 147.01C34.1857 147.51 34.748 147.76 35.4353 147.76C36.1227 147.76 36.685 147.51 37.1224 147.01C37.5598 146.51 37.8097 145.823 37.8097 144.948C37.8097 144.385 37.6847 143.886 37.4973 143.448C37.3098 143.011 37.0599 142.698 36.685 142.448C36.3101 142.199 35.9352 142.074 35.4353 142.074C34.8105 142.074 34.2482 142.323 33.7483 142.761C33.2484 143.198 33.061 143.948 33.061 145.01Z" fill="white"/>
<path d="M43.0584 148.509L40.3717 141.449H41.3714L43.1834 146.572C43.3084 147.01 43.4333 147.385 43.5583 147.697C43.6833 147.322 43.8082 146.947 43.9332 146.572L45.8077 141.449H46.745L44.0582 148.509H43.0584Z" fill="white"/>
<path d="M48.4945 148.509V141.449H49.3693V148.509H48.4945Z" fill="white"/>
<path d="M52.0556 148.509V141.449H52.9928L56.6168 146.947V141.449H57.4916V148.509H56.5544L52.9303 142.948V148.509H52.0556Z" fill="white"/>
<path d="M63.1777 145.635V144.823H66.1144V147.385C65.6771 147.76 65.1772 148.01 64.7398 148.197C64.2399 148.385 63.7401 148.447 63.2402 148.447C62.5529 148.447 61.928 148.322 61.3657 148.01C60.8033 147.697 60.366 147.322 60.116 146.76C59.8661 146.198 59.6786 145.573 59.6786 144.886C59.6786 144.198 59.8036 143.573 60.116 143.011C60.4284 142.449 60.8034 142.011 61.3032 141.699C61.8031 141.386 62.4279 141.261 63.1152 141.261C63.6151 141.261 64.0525 141.324 64.4899 141.511C64.8648 141.699 65.2397 141.886 65.4271 142.199C65.6771 142.511 65.802 142.886 65.927 143.323L65.1147 143.573C64.9897 143.198 64.8648 142.949 64.7398 142.761C64.6148 142.574 64.3649 142.386 64.0525 142.261C63.7401 142.136 63.4277 142.074 63.1152 142.074C62.6779 142.074 62.3654 142.136 62.053 142.261C61.7406 142.386 61.4907 142.574 61.3032 142.761C61.1158 142.949 60.9908 143.198 60.8658 143.448C60.6784 143.886 60.6159 144.323 60.6159 144.823C60.6159 145.448 60.7409 145.948 60.9283 146.385C61.1158 146.823 61.4282 147.135 61.8656 147.322C62.2405 147.51 62.6779 147.635 63.1777 147.635C63.5526 147.635 63.99 147.572 64.3649 147.385C64.7398 147.26 65.0522 147.072 65.2397 146.885V145.573H63.1777V145.635Z" fill="white"/>
<path d="M71.9259 148.51V141.449H76.6747V142.261H72.8632V144.448H76.1748V145.261H72.8632V148.447H71.9259V148.51Z" fill="white"/>
<path d="M78.4867 145.011C78.4867 143.886 78.7991 142.949 79.424 142.324C80.0488 141.699 80.8611 141.324 81.9233 141.324C82.6106 141.324 83.173 141.449 83.7353 141.761C84.2977 142.074 84.6726 142.511 84.9225 143.011C85.1724 143.574 85.3599 144.198 85.3599 144.886C85.3599 145.573 85.2349 146.198 84.9225 146.76C84.6101 147.323 84.2352 147.76 83.6728 148.01C83.1105 148.322 82.5481 148.447 81.9233 148.447C81.236 148.447 80.6736 148.26 80.1113 147.947C79.5489 147.635 79.174 147.198 78.9241 146.635C78.6117 146.198 78.4867 145.635 78.4867 145.011ZM79.424 145.011C79.424 145.823 79.6739 146.51 80.1113 147.01C80.5487 147.51 81.1735 147.76 81.8608 147.76C82.5481 147.76 83.173 147.51 83.6103 147.01C84.0477 146.51 84.2977 145.823 84.2977 144.948C84.2977 144.386 84.1727 143.886 83.9852 143.449C83.7978 143.011 83.4854 142.699 83.1105 142.449C82.7356 142.199 82.2982 142.074 81.7983 142.074C81.111 142.074 80.5487 142.324 80.0488 142.761C79.6739 143.261 79.424 143.948 79.424 145.011Z" fill="white"/>
<path d="M87.4217 148.51V141.449H90.4834C91.1082 141.449 91.5456 141.512 91.858 141.637C92.1705 141.762 92.4204 142.011 92.6078 142.324C92.7953 142.636 92.9203 143.011 92.9203 143.386C92.9203 143.886 92.7328 144.323 92.4204 144.636C92.108 144.948 91.6081 145.198 90.9833 145.261C91.2332 145.386 91.4207 145.511 91.5456 145.635C91.7956 145.885 92.0455 146.198 92.2954 146.573L93.4826 148.51H92.3579L91.4207 147.073C91.1707 146.635 90.9208 146.323 90.7333 146.073C90.5459 145.823 90.4209 145.698 90.296 145.573C90.171 145.511 90.046 145.448 89.8586 145.386C89.7336 145.386 89.6086 145.323 89.3587 145.323H88.2965V148.447H87.4217V148.51ZM88.359 144.573H90.296C90.7333 144.573 91.0458 144.511 91.2957 144.448C91.5456 144.386 91.7331 144.198 91.858 144.011C91.983 143.823 92.0455 143.636 92.0455 143.386C92.0455 143.074 91.9205 142.761 91.6706 142.574C91.4207 142.386 91.0458 142.261 90.5459 142.261H88.359V144.573Z" fill="white"/>
<path d="M96.2945 148.385L94.42 141.449H95.3572L96.4194 146.01C96.5444 146.51 96.6069 146.948 96.7319 147.448C96.9193 146.698 97.0443 146.26 97.0443 146.135L98.3564 141.449H99.4811L100.481 144.948C100.731 145.823 100.918 146.635 101.043 147.385C101.106 146.948 101.231 146.448 101.418 145.885L102.48 141.449H103.418L101.543 148.385H100.606L99.1687 143.074C99.0437 142.636 98.9812 142.386 98.9812 142.261C98.9188 142.574 98.8563 142.824 98.7938 143.074L97.2942 148.385H96.2945Z" fill="white"/>
<path d="M104.105 148.385L106.792 141.449H107.791L110.666 148.385H109.603L108.791 146.26H105.854L105.105 148.385H104.105ZM106.104 145.573H108.479L107.729 143.636C107.479 143.074 107.354 142.574 107.229 142.199C107.167 142.636 107.042 143.074 106.854 143.511L106.104 145.573Z" fill="white"/>
<path d="M112.353 148.385V141.449H115.352C115.977 141.449 116.414 141.512 116.727 141.637C117.039 141.762 117.289 142.011 117.476 142.324C117.664 142.636 117.726 143.011 117.726 143.386C117.726 143.886 117.601 144.323 117.289 144.636C116.977 144.948 116.477 145.198 115.852 145.261C116.102 145.386 116.289 145.511 116.414 145.635C116.664 145.885 116.914 146.198 117.164 146.573L118.351 148.447H117.227L116.352 147.01C116.102 146.573 115.852 146.26 115.727 146.073C115.539 145.823 115.415 145.698 115.29 145.635C115.165 145.573 115.04 145.511 114.915 145.448C114.79 145.448 114.665 145.386 114.415 145.386H113.415V148.447H112.353V148.385ZM113.228 144.511H115.102C115.477 144.511 115.852 144.448 116.039 144.386C116.289 144.323 116.414 144.136 116.539 143.948C116.664 143.761 116.727 143.574 116.727 143.324C116.727 143.011 116.602 142.699 116.352 142.511C116.102 142.324 115.789 142.199 115.29 142.199H113.165V144.511H113.228Z" fill="white"/>
<path d="M120.038 148.385V141.449H122.413C122.975 141.449 123.35 141.512 123.662 141.574C124.037 141.637 124.412 141.824 124.662 142.074C125.037 142.386 125.287 142.761 125.474 143.261C125.662 143.761 125.724 144.323 125.724 144.886C125.724 145.386 125.662 145.885 125.537 146.26C125.412 146.698 125.224 147.01 125.037 147.26C124.849 147.51 124.662 147.76 124.412 147.885C124.162 148.01 123.912 148.135 123.6 148.26C123.287 148.322 122.912 148.385 122.475 148.385H120.038ZM120.975 147.572H122.475C122.912 147.572 123.287 147.51 123.537 147.448C123.787 147.385 123.975 147.26 124.162 147.073C124.35 146.885 124.537 146.573 124.662 146.198C124.787 145.823 124.849 145.386 124.849 144.886C124.849 144.136 124.724 143.574 124.474 143.199C124.225 142.824 123.975 142.574 123.6 142.386C123.35 142.261 122.975 142.261 122.413 142.261H120.975V147.572Z" fill="white"/>
<path d="M131.222 146.073L132.097 146.01C132.159 146.323 132.222 146.635 132.409 146.823C132.534 147.072 132.784 147.197 133.097 147.322C133.409 147.447 133.784 147.51 134.159 147.51C134.534 147.51 134.784 147.447 135.096 147.385C135.346 147.26 135.533 147.135 135.658 146.947C135.783 146.76 135.846 146.573 135.846 146.385C135.846 146.198 135.783 146.01 135.658 145.823C135.533 145.635 135.346 145.51 135.034 145.448C134.846 145.385 134.471 145.26 133.846 145.135C133.222 145.01 132.784 144.823 132.534 144.698C132.222 144.511 131.972 144.323 131.784 144.073C131.597 143.823 131.535 143.511 131.535 143.198C131.535 142.824 131.66 142.511 131.847 142.261C132.034 141.949 132.347 141.761 132.722 141.574C133.097 141.386 133.534 141.324 133.971 141.324C134.471 141.324 134.909 141.386 135.284 141.574C135.658 141.761 135.971 141.949 136.158 142.324C136.346 142.636 136.471 143.011 136.471 143.386L135.596 143.448C135.533 143.011 135.409 142.699 135.096 142.449C134.846 142.199 134.409 142.136 133.909 142.136C133.347 142.136 132.972 142.261 132.722 142.449C132.472 142.636 132.347 142.886 132.347 143.198C132.347 143.448 132.409 143.636 132.597 143.823C132.784 144.011 133.222 144.136 133.971 144.323C134.721 144.511 135.221 144.636 135.471 144.761C135.846 144.948 136.158 145.198 136.346 145.448C136.533 145.698 136.658 146.073 136.658 146.448C136.658 146.823 136.533 147.135 136.346 147.447C136.158 147.76 135.846 148.01 135.471 148.197C135.096 148.385 134.659 148.447 134.159 148.447C133.534 148.447 133.034 148.385 132.597 148.197C132.159 148.01 131.847 147.76 131.597 147.385C131.347 146.947 131.222 146.51 131.222 146.073Z" fill="white"/>
<path d="M140.845 148.385V142.261H138.533V141.449H144.032V142.261H141.72V148.385H140.845Z" fill="white"/>
<path d="M145.906 148.385V141.449H148.968C149.592 141.449 150.03 141.512 150.405 141.637C150.717 141.762 150.967 142.011 151.154 142.324C151.342 142.636 151.467 143.011 151.467 143.386C151.467 143.886 151.279 144.323 150.967 144.636C150.655 144.948 150.155 145.198 149.467 145.261C149.717 145.386 149.905 145.511 150.03 145.635C150.28 145.885 150.53 146.198 150.78 146.573L151.967 148.447H150.78L149.842 147.01C149.592 146.573 149.342 146.26 149.155 146.073C148.968 145.823 148.843 145.698 148.718 145.635C148.593 145.573 148.468 145.511 148.28 145.448C148.155 145.448 148.03 145.386 147.78 145.386H146.718V148.447H145.906V148.385ZM146.781 144.511H148.78C149.218 144.511 149.53 144.448 149.78 144.386C150.03 144.323 150.217 144.136 150.342 143.948C150.467 143.761 150.53 143.574 150.53 143.324C150.53 143.011 150.405 142.699 150.155 142.511C149.905 142.324 149.53 142.199 149.03 142.199H146.843V144.511H146.781Z" fill="white"/>
<path d="M153.091 148.385L155.778 141.449H156.778L159.652 148.385H158.59L157.778 146.26H154.841L154.091 148.385H153.091ZM155.091 145.511H157.465L156.716 143.574C156.466 143.011 156.341 142.511 156.216 142.136C156.153 142.574 156.028 143.011 155.841 143.449L155.091 145.511Z" fill="white"/>
<path d="M162.151 148.385V142.261H159.84V141.449H165.338V142.261H163.089V148.385H162.151Z" fill="white"/>
<path d="M167.463 148.385V141.449H172.461V142.261H168.337V144.386H172.211V145.198H168.337V147.572H172.586V148.385H167.463Z" fill="white"/>
<path d="M178.022 145.51V144.761H181.021V147.198C180.584 147.51 180.084 147.822 179.584 147.947C179.084 148.135 178.585 148.197 178.085 148.197C177.397 148.197 176.773 148.072 176.21 147.76C175.648 147.51 175.21 147.073 174.961 146.573C174.648 146.073 174.523 145.448 174.523 144.823C174.523 144.198 174.648 143.574 174.961 143.011C175.273 142.449 175.648 142.011 176.21 141.761C176.773 141.512 177.335 141.324 178.085 141.324C178.585 141.324 179.022 141.387 179.459 141.574C179.897 141.699 180.209 141.949 180.397 142.199C180.647 142.449 180.834 142.824 180.896 143.261L180.084 143.449C179.959 143.136 179.834 142.824 179.709 142.636C179.522 142.449 179.334 142.261 179.022 142.199C178.71 142.074 178.397 142.011 178.085 142.011C177.647 142.011 177.272 142.074 176.96 142.199C176.648 142.324 176.398 142.511 176.21 142.699C176.023 142.886 175.898 143.136 175.773 143.324C175.585 143.761 175.523 144.198 175.523 144.636C175.523 145.198 175.648 145.698 175.835 146.135C176.023 146.51 176.335 146.823 176.773 147.01C177.21 147.198 177.647 147.323 178.085 147.323C178.46 147.323 178.897 147.26 179.272 147.073C179.647 146.948 179.959 146.76 180.147 146.635V145.386H178.022V145.51Z" fill="white"/>
<path d="M183.271 148.385V141.449H184.146V148.385H183.271Z" fill="white"/>
<path d="M191.706 145.948L192.643 146.198C192.456 146.885 192.081 147.448 191.581 147.823C191.081 148.197 190.457 148.385 189.769 148.385C189.019 148.385 188.395 148.26 187.957 147.948C187.52 147.635 187.145 147.26 186.895 146.698C186.645 146.136 186.52 145.573 186.52 144.948C186.52 144.261 186.645 143.636 186.957 143.136C187.207 142.636 187.645 142.262 188.145 141.949C188.645 141.699 189.207 141.574 189.832 141.574C190.519 141.574 191.081 141.762 191.581 142.074C192.081 142.387 192.394 142.886 192.581 143.511L191.706 143.699C191.519 143.199 191.331 142.886 191.019 142.636C190.706 142.449 190.332 142.324 189.894 142.324C189.394 142.324 188.894 142.449 188.582 142.699C188.207 142.949 187.957 143.261 187.832 143.699C187.707 144.136 187.645 144.511 187.645 144.948C187.645 145.511 187.707 146.011 187.895 146.385C188.082 146.823 188.332 147.135 188.707 147.323C189.082 147.51 189.457 147.635 189.894 147.635C190.394 147.635 190.831 147.51 191.206 147.198C191.331 146.948 191.581 146.51 191.706 145.948Z" fill="white"/>
<path d="M194.143 148.385L196.643 141.449H197.58L200.267 148.385H199.329L198.579 146.26H195.83L195.08 148.385H194.143ZM196.018 145.511H198.267L197.58 143.574C197.392 143.011 197.205 142.511 197.142 142.136C197.08 142.574 196.955 143.011 196.767 143.449L196.018 145.511Z" fill="white"/>
<path d="M202.141 148.385V141.449H203.078V147.572H206.64V148.385H202.141Z" fill="white"/>
<path d="M208.452 148.385V141.449H209.326V147.572H212.575V148.385H208.452Z" fill="white"/>
<path d="M215.95 148.385V145.448L213.388 141.449H214.45L215.762 143.574C216.012 143.948 216.2 144.386 216.45 144.761C216.637 144.386 216.887 144.011 217.137 143.511L218.387 141.449H219.386L216.825 145.448V148.385H215.95Z" fill="white"/>
<path d="M221.761 146.76L221.511 143.011V141.449H222.573V143.011L222.323 146.76H221.761ZM221.573 148.51V147.51H222.511V148.51H221.573Z" fill="white"/>
<path d="M61.4909 96.0239V5.86035L106.666 51.4107L125.536 32.4158H145.656L106.666 71.7178L76.9868 41.9133V96.0239H61.4909Z" fill="url(#paint0_linear_73_2149)"/>
<path d="M77.6738 6.23535H151.404C159.277 6.23535 167.025 8.73469 173.211 13.5459C178.897 17.9822 183.521 24.4805 183.771 35.3526C183.771 35.8525 183.771 36.2899 183.771 36.7897C183.833 39.7889 183.458 56.8469 165.775 64.2199L183.771 95.9615H166.65L140.969 51.0984H155.216C156.028 51.1609 161.651 51.2234 165.9 46.7246C170.149 42.1633 169.712 36.6023 169.587 35.7275C169.462 34.2904 168.962 29.979 166.213 26.48C166.025 26.2925 165.9 26.1051 165.713 25.9176C162.964 22.731 158.902 20.9814 154.716 20.9814H92.7322L77.6738 6.23535Z" fill="url(#paint1_linear_73_2149)"/>
<path d="M14.6906 135.2C13.0661 135.2 11.504 134.95 9.94189 134.513C8.3798 134.075 6.81772 133.326 5.31812 132.388V127.265H7.2551L7.56752 131.389C8.69222 132.076 9.8794 132.576 11.0666 132.888C12.2538 133.201 13.5034 133.388 14.7531 133.388C16.1902 133.388 17.5024 133.201 18.5646 132.763C19.6268 132.326 20.5016 131.763 21.1264 130.951C21.7512 130.139 22.0637 129.264 22.0637 128.264C22.0637 127.265 21.8137 126.452 21.3139 125.703C20.814 124.953 20.0017 124.328 18.9395 123.766C17.8148 123.203 16.3152 122.703 14.4407 122.266C12.4412 121.766 10.7542 121.204 9.5045 120.516C8.19235 119.829 7.2551 119.017 6.69275 118.08C6.06791 117.142 5.7555 116.018 5.7555 114.705C5.7555 113.393 6.1304 112.206 6.8802 111.206C7.63 110.207 8.62973 109.394 10.0044 108.832C11.3165 108.27 12.8786 107.957 14.6906 107.957C16.5651 107.957 18.2522 108.207 19.6893 108.77C21.1889 109.332 22.4386 109.957 23.4383 110.832V115.58H21.5638L21.2514 111.831C20.4391 111.206 19.5018 110.707 18.3771 110.394C17.2524 110.019 16.0653 109.894 14.6281 109.894C13.2535 109.894 12.0663 110.082 11.1291 110.519C10.1293 110.956 9.37953 111.519 8.87967 112.269C8.3798 113.018 8.06738 113.831 8.06738 114.768C8.06738 115.643 8.25484 116.455 8.69222 117.08C9.1296 117.767 9.81692 118.33 10.8791 118.892C11.9414 119.392 13.3785 119.892 15.253 120.391C18.2522 121.141 20.5641 122.141 22.1261 123.391C23.6882 124.64 24.438 126.265 24.438 128.327C24.438 129.764 24.0631 130.951 23.2508 132.013C22.4386 133.076 21.3139 133.888 19.8767 134.45C18.2522 134.888 16.5651 135.2 14.6906 135.2Z" fill="white"/>
<path d="M38.8714 135.2C36.9969 135.2 35.3724 134.825 33.9353 134.138C32.4981 133.45 31.3734 132.451 30.5612 131.076C29.7489 129.764 29.374 128.139 29.374 126.265V110.144L26.3123 109.894V108.27H34.6226V109.894L31.5609 110.144V126.265C31.5609 127.764 31.8733 129.014 32.4981 130.076C33.123 131.139 33.9977 131.951 35.06 132.451C36.1847 133.013 37.4343 133.263 38.8714 133.263C40.3086 133.263 41.5582 133.013 42.6829 132.451C43.8076 131.888 44.6824 131.076 45.3072 130.076C45.9321 129.014 46.2445 127.764 46.2445 126.265V110.144L43.1828 109.894V108.27H51.4931V109.894L48.4314 110.144V126.265C48.4314 128.202 48.0565 129.826 47.2442 131.139C46.4319 132.451 45.3072 133.45 43.8701 134.138C42.433 134.825 40.8084 135.2 38.8714 135.2Z" fill="white"/>
<path d="M78.4859 134.825V133.263L81.4851 133.013V110.206L78.4859 109.956V108.332H81.4851H89.7329C91.6074 108.332 93.1695 108.644 94.4816 109.269C95.7938 109.894 96.7935 110.831 97.4808 111.956C98.1682 113.081 98.4806 114.455 98.4806 116.017C98.4806 117.579 98.1682 118.954 97.4808 120.079C96.7935 121.266 95.7938 122.141 94.4816 122.766C93.1695 123.39 91.6074 123.703 89.7329 123.703H83.672V132.888L86.6712 133.138V134.7H78.4859V134.825ZM83.6095 121.953H89.6704C91.8573 121.953 93.4819 121.391 94.6066 120.266C95.7313 119.142 96.2312 117.767 96.2312 116.08C96.2312 114.393 95.6688 112.956 94.6066 111.831C93.5444 110.706 91.8573 110.144 89.6704 110.144H83.6095V121.953Z" fill="white"/>
<path d="M96.9185 134.825V133.263L98.8555 133.138L108.29 108.395H110.352L119.725 133.138L121.662 133.263V134.825H115.101V133.263L117.413 133.076L115.226 127.077H103.354L101.105 133.076L103.417 133.263V134.825H96.9185ZM104.104 125.203H114.601L109.79 112.206L109.415 111.144H109.29L108.915 112.206L104.104 125.203Z" fill="white"/>
<path d="M134.409 135.2C132.847 135.2 131.222 134.95 129.66 134.513C128.098 134.075 126.536 133.326 125.099 132.388V127.265H126.973L127.286 131.389C128.41 132.076 129.535 132.576 130.785 132.888C131.972 133.201 133.222 133.388 134.409 133.388C135.846 133.388 137.158 133.201 138.22 132.763C139.283 132.326 140.157 131.763 140.72 130.951C141.345 130.201 141.594 129.264 141.594 128.264C141.594 127.265 141.345 126.452 140.845 125.703C140.345 124.953 139.595 124.328 138.47 123.766C137.346 123.203 135.908 122.703 134.034 122.266C132.035 121.766 130.347 121.204 129.098 120.516C127.848 119.829 126.911 119.017 126.286 118.08C125.661 117.142 125.411 116.018 125.411 114.705C125.411 113.393 125.786 112.206 126.536 111.206C127.286 110.207 128.286 109.394 129.598 108.832C130.91 108.27 132.472 107.957 134.221 107.957C136.096 107.957 137.721 108.207 139.22 108.77C140.72 109.332 141.907 109.957 142.907 110.832V115.58H141.032L140.72 111.831C139.907 111.206 138.97 110.707 137.908 110.394C136.846 110.019 135.596 109.894 134.221 109.894C132.847 109.894 131.722 110.082 130.722 110.519C129.723 110.956 128.973 111.519 128.473 112.269C127.973 113.018 127.661 113.831 127.661 114.768C127.661 115.643 127.848 116.455 128.286 117.08C128.723 117.767 129.41 118.33 130.472 118.892C131.472 119.392 132.909 119.892 134.784 120.391C137.783 121.141 140.032 122.141 141.594 123.391C143.157 124.64 143.906 126.265 143.906 128.327C143.906 129.764 143.531 130.951 142.719 132.013C141.907 133.076 140.782 133.888 139.345 134.45C137.908 134.888 136.283 135.2 134.409 135.2Z" fill="white"/>
<path d="M156.59 135.2C155.028 135.2 153.466 134.95 151.842 134.513C150.28 134.075 148.78 133.326 147.28 132.388V127.265H149.155L149.467 131.389C150.592 132.076 151.717 132.576 152.904 132.888C154.091 133.201 155.341 133.388 156.528 133.388C157.965 133.388 159.215 133.201 160.339 132.763C161.402 132.326 162.276 131.763 162.839 130.951C163.464 130.201 163.714 129.264 163.714 128.264C163.714 127.265 163.464 126.452 162.964 125.703C162.464 124.953 161.714 124.328 160.589 123.766C159.465 123.203 158.028 122.703 156.153 122.266C154.154 121.766 152.529 121.204 151.217 120.516C149.967 119.829 149.03 119.017 148.405 118.08C147.78 117.142 147.53 116.018 147.53 114.705C147.53 113.393 147.905 112.206 148.655 111.206C149.405 110.207 150.405 109.394 151.717 108.832C153.029 108.27 154.591 107.957 156.341 107.957C158.215 107.957 159.84 108.207 161.339 108.77C162.776 109.332 164.026 109.957 165.026 110.832V115.58H163.151L162.839 111.831C162.027 111.206 161.089 110.707 160.027 110.394C158.965 110.019 157.715 109.894 156.341 109.894C154.966 109.894 153.841 110.082 152.841 110.519C151.842 110.956 151.092 111.519 150.592 112.269C150.092 113.018 149.78 113.831 149.78 114.768C149.78 115.643 149.967 116.455 150.405 117.08C150.842 117.767 151.529 118.33 152.592 118.892C153.591 119.392 155.028 119.892 156.903 120.391C159.902 121.141 162.152 122.141 163.651 123.391C165.151 124.64 165.963 126.265 165.963 128.327C165.963 129.764 165.588 130.951 164.776 132.013C163.964 133.076 162.839 133.888 161.464 134.45C160.09 134.888 158.465 135.2 156.59 135.2Z" fill="white"/>
<path d="M177.834 134.825V133.263L180.834 133.013V110.206L177.834 109.956V108.332H180.834H183.021H186.02V109.956L183.021 110.206V133.075H194.143L194.33 128.826H196.142V134.887H177.834V134.825Z" fill="white"/>
<path d="M198.704 134.825V133.263L201.703 133.013V110.206L198.704 109.956V108.332H201.703H203.953H206.952V109.956L203.953 110.206V133.075H215.262L215.45 128.826H217.262V134.887H198.704V134.825Z" fill="white"/>
<path d="M232.32 134.825C229.634 134.825 227.384 134.263 225.51 133.138C223.698 132.013 222.261 130.451 221.323 128.452C220.386 126.452 219.886 124.14 219.886 121.578V121.266C219.886 118.642 220.386 116.392 221.323 114.393C222.323 112.393 223.698 110.831 225.51 109.707C227.322 108.582 229.384 108.02 231.821 108.02C233.695 108.02 235.32 108.269 236.632 108.769C237.944 109.269 239.194 109.957 240.256 110.831V115.892H238.381L238.194 111.706C237.632 111.331 237.069 110.956 236.444 110.706C235.82 110.456 235.195 110.206 234.445 110.081C233.695 109.957 232.82 109.832 231.883 109.832C229.884 109.832 228.197 110.331 226.759 111.269C225.322 112.206 224.198 113.581 223.385 115.268C222.573 116.955 222.198 118.954 222.198 121.204V121.578C222.198 123.89 222.573 125.89 223.385 127.639C224.198 129.389 225.322 130.639 226.884 131.576C228.384 132.513 230.196 132.95 232.32 132.95C233.445 132.95 234.57 132.825 235.632 132.513C236.694 132.263 237.569 131.888 238.319 131.388L238.506 127.452H240.381V132.638C239.256 133.325 238.006 133.825 236.632 134.2C235.32 134.637 233.82 134.825 232.32 134.825Z" fill="white"/>
<path d="M74.4873 132.701C73.8 132.326 73.6126 131.639 73.5501 131.514V126.14C73.4876 125.703 73.3002 124.391 72.3004 123.266C71.0508 121.891 69.4887 121.704 69.1138 121.641C69.5512 121.516 71.4881 120.954 72.7378 119.017C73.7375 117.392 73.6126 115.83 73.5501 115.268C73.5501 114.831 73.5501 112.331 71.5506 110.332C69.6136 108.457 67.3018 108.395 66.8019 108.395H53.8678V110.144H56.9295V132.888H54.0553V134.513H61.8657V132.763H58.8665V122.516H67.1768C67.6142 122.578 68.7389 122.766 69.8011 123.703C70.9258 124.64 71.3007 125.828 71.3632 126.203V131.576C71.3632 131.764 71.5506 133.326 72.8628 134.2C74.4249 135.263 76.1744 134.575 76.2994 134.513V132.826C76.2369 132.888 75.3621 133.263 74.4873 132.701ZM66.4895 120.829H59.054V110.019H66.4895C66.8644 110.019 68.6764 110.144 70.1135 111.644C71.6131 113.206 71.6131 115.018 71.6131 115.393C71.6756 115.705 71.8006 117.517 70.5509 119.079C68.9888 120.891 66.7394 120.829 66.4895 120.829Z" fill="white"/>
</g>
<defs>
<filter id="filter0_d_73_2149" x="0.318115" y="0.860352" width="251.063" height="158.649" filterUnits="userSpaceOnUse" color-interpolation-filters="sRGB">
<feFlood flood-opacity="0" result="BackgroundImageFix"/>
<feColorMatrix in="SourceAlpha" type="matrix" values="0 0 0 0 0 0 0 0 0 0 0 0 0 0 0 0 0 0 127 0" result="hardAlpha"/>
<feOffset dx="3" dy="3"/>
<feGaussianBlur stdDeviation="4"/>
<feComposite in2="hardAlpha" operator="out"/>
<feColorMatrix type="matrix" values="0 0 0 0 0 0 0 0 0 0 0 0 0 0 0 0 0 0 0.4 0"/>
<feBlend mode="normal" in2="BackgroundImageFix" result="effect1_dropShadow_73_2149"/>
<feBlend mode="normal" in="SourceGraphic" in2="effect1_dropShadow_73_2149" result="shape"/>
</filter>
<linearGradient id="paint0_linear_73_2149" x1="103.565" y1="5.88753" x2="103.565" y2="95.996" gradientUnits="userSpaceOnUse">
<stop stop-color="#119AD0"/>
<stop offset="0.2041" stop-color="#1093CA"/>
<stop offset="0.4944" stop-color="#0E81B9"/>
<stop offset="0.835" stop-color="#0B629E"/>
<stop offset="0.8466" stop-color="#0B619D"/>
</linearGradient>
<linearGradient id="paint1_linear_73_2149" x1="130.785" y1="6.23391" x2="130.785" y2="95.9961" gradientUnits="userSpaceOnUse">
<stop stop-color="#76777C"/>
<stop offset="0.2204" stop-color="#6F7074"/>
<stop offset="0.5563" stop-color="#5A5C5F"/>
<stop offset="0.852" stop-color="#434647"/>
</linearGradient>
</defs>
</svg>
